<svg width="77" height="77" viewBox="0 0 77 77" fill="none" xmlns="http://www.w3.org/2000/svg">
<g filter="url(#filter0_i_562_3511)">
<path d="M38.03 0.423828C71.63 0.423828 76.06 4.85083 76.06 38.4538C76.06 72.0568 71.633 76.4838 38.03 76.4838C4.427 76.4838 0 72.0568 0 38.4538C0 4.85083 4.427 0.423828 38.03 0.423828Z" fill="url(#paint0_radial_562_3511)"/>
</g>
<path d="M9.052 25.245H25.534V37.278H21.749V28.178H12.837V37.278H9.052V25.245ZM41.788 29.029L32.2 37.278H28.324V25.245H32.109V33.494L41.7 25.245H45.572V37.278H41.788V29.029ZM47.735 31.261C47.7021 30.2307 47.9269 29.2085 48.389 28.287C48.8275 27.4757 49.4861 26.8047 50.289 26.351C51.2523 25.8233 52.3021 25.4718 53.389 25.313C56.1931 24.8944 59.0439 24.8944 61.848 25.313C62.9388 25.4723 63.9928 25.8238 64.961 26.351C65.768 26.8027 66.4302 27.474 66.871 28.287C67.3331 29.2085 67.5579 30.2307 67.525 31.261C67.5579 32.2913 67.3331 33.3135 66.871 34.235C66.4302 35.048 65.768 35.7193 64.961 36.171C63.9928 36.6982 62.9388 37.0496 61.848 37.209C60.4495 37.4306 59.0349 37.5356 57.619 37.523C56.2031 37.5356 54.7885 37.4306 53.39 37.209C52.3031 37.0502 51.2533 36.6987 50.29 36.171C49.4871 35.7173 48.8285 35.0463 48.39 34.235C47.9276 33.3136 47.7024 32.2914 47.735 31.261ZM63.745 31.61V30.878C63.7754 30.364 63.6413 29.8537 63.3623 29.4209C63.0833 28.9882 62.6737 28.6555 62.193 28.471C60.7292 27.9473 59.1768 27.7163 57.624 27.791C56.0768 27.717 54.5301 27.948 53.072 28.471C52.5913 28.6555 52.1817 28.9882 51.9027 29.4209C51.6237 29.8537 51.4896 30.364 51.52 30.878V31.61C51.4788 32.1336 51.6075 32.6565 51.8871 33.1011C52.1667 33.5458 52.5822 33.8883 53.072 34.078C54.5344 34.5816 56.079 34.8035 57.624 34.732C59.1746 34.8043 60.7249 34.5824 62.193 34.078C62.683 33.8885 63.0987 33.546 63.3785 33.1014C63.6583 32.6567 63.7862 32.1337 63.745 31.61ZM9 40.031H12.785V44.356H22.168V40.031H25.953V52.065H22.168V47.286H12.785V52.065H9V40.031ZM31.6 40.031H46.148V42.682H35.387V44.688H43.587V47.217H35.387V49.417H46.218V52.068H31.6V40.031ZM51.29 40.031H62.978C64.2955 39.9212 65.6045 40.3242 66.632 41.156C67.0343 41.5615 67.347 42.047 67.5497 42.581C67.7525 43.115 67.8408 43.6857 67.809 44.256C67.8448 44.8603 67.759 45.4656 67.5569 46.0362C67.3547 46.6068 67.0402 47.131 66.632 47.578C66.1338 48.0114 65.5537 48.3405 64.9261 48.5458C64.2985 48.751 63.636 48.8283 62.978 48.773H55.078V52.073H51.293L51.29 40.031ZM64.022 44.531V44.2C64.03 44.0083 63.9995 43.8169 63.9321 43.6372C63.8648 43.4575 63.762 43.2932 63.63 43.154C63.4536 43.0056 63.2493 42.8938 63.0292 42.8251C62.8091 42.7564 62.5775 42.7322 62.348 42.754H55.078V46.054H62.35C62.5845 46.0802 62.822 46.0573 63.0472 45.9867C63.2724 45.9161 63.4804 45.7994 63.658 45.644C63.9167 45.3328 64.0478 44.9351 64.025 44.531H64.022Z" fill="url(#paint1_radial_562_3511)"/>
<defs>
<filter id="filter0_i_562_3511" x="0" y="0.423828" width="76.0601" height="76.0601" filterUnits="userSpaceOnUse" color-interpolation-filters="sRGB">
<feFlood flood-opacity="0" result="BackgroundImageFix"/>
<feBlend mode="normal" in="SourceGraphic" in2="BackgroundImageFix" result="shape"/>
<feColorMatrix in="SourceAlpha" type="matrix" values="0 0 0 0 0 0 0 0 0 0 0 0 0 0 0 0 0 0 127 0" result="hardAlpha"/>
<feOffset/>
<feGaussianBlur stdDeviation="2.5"/>
<feComposite in2="hardAlpha" operator="arithmetic" k2="-1" k3="1"/>
<feColorMatrix type="matrix" values="0 0 0 0 1 0 0 0 0 1 0 0 0 0 1 0 0 0 0.56 0"/>
<feBlend mode="normal" in2="shape" result="effect1_innerShadow_562_3511"/>
</filter>
<radialGradient id="paint0_radial_562_3511" cx="0" cy="0" r="1" gradientUnits="userSpaceOnUse" gradientTransform="translate(37 19) rotate(90) scale(38)">
<stop stop-color="#FF0099"/>
<stop offset="0.64" stop-color="#E21778"/>
<stop offset="1" stop-color="#C70057"/>
</radialGradient>
<radialGradient id="paint1_radial_562_3511" cx="0" cy="0" r="1" gradientUnits="userSpaceOnUse" gradientTransform="translate(38.4085 39.1444) scale(35.9371 18.1302)">
<stop stop-color="white"/>
<stop offset="0.535" stop-color="white" stop-opacity="0.89"/>
<stop offset="1" stop-color="white" stop-opacity="0.502"/>
</radialGradient>
</defs>
</svg>
