<svg width="94" height="30" viewBox="0 0 94 30" fill="none" xmlns="http://www.w3.org/2000/svg">
<path d="M1.31183e-09 11.905C1.31183e-09 6.293 0 3.487 1.743 1.743C3.486 -0.000999928 6.293 1.31206e-09 11.905 1.31206e-09H81.886C87.5 1.31206e-09 90.3 0 92.048 1.743C93.796 3.486 93.791 6.292 93.791 11.905V17.9C93.791 23.512 93.791 26.318 92.048 28.062C90.305 29.806 87.5 29.8 81.886 29.8H11.905C6.293 29.8 3.487 29.8 1.743 28.057C-0.000999928 26.314 1.31183e-09 23.509 1.31183e-09 17.9V11.905Z" fill="#808080"/>
<path d="M44.3739 24.927V15.539H45.7739V16.713H45.8009C46.0272 16.32 46.3561 15.996 46.7525 15.7756C47.1488 15.5552 47.5976 15.4468 48.0509 15.462C49.8419 15.462 51.0229 16.878 51.0229 19.062C51.0229 21.246 49.8489 22.662 48.0769 22.662C47.6282 22.6855 47.1819 22.5821 46.7893 22.3637C46.3966 22.1453 46.0735 21.8206 45.8569 21.427H45.8229V24.927H44.3739ZM45.8169 19.065C45.8169 20.487 46.5609 21.439 47.6679 21.439C48.7949 21.439 49.5329 20.507 49.5329 19.065C49.5329 17.623 48.7939 16.697 47.6679 16.697C46.5609 16.697 45.8169 17.656 45.8169 19.065ZM36.6069 24.927V15.539H38.0069V16.713H38.0339C38.2603 16.321 38.589 15.9979 38.9847 15.7781C39.3804 15.5583 39.8284 15.4501 40.2809 15.465C42.0719 15.465 43.2519 16.881 43.2519 19.065C43.2519 21.249 42.0779 22.665 40.3069 22.665C39.8582 22.6885 39.4119 22.5851 39.0193 22.3667C38.6266 22.1483 38.3035 21.8236 38.0869 21.43H38.0509V24.93L36.6069 24.927ZM38.0509 19.065C38.0509 20.487 38.7959 21.439 39.9019 21.439C41.0289 21.439 41.7669 20.507 41.7669 19.065C41.7669 17.623 41.0279 16.697 39.9019 16.697C38.7939 16.697 38.0509 17.656 38.0509 19.065ZM54.6729 19.896H56.1509C56.2579 20.856 57.1909 21.486 58.4649 21.486C59.6859 21.486 60.5649 20.856 60.5649 19.986C60.5649 19.235 60.0349 18.786 58.7799 18.476L57.5259 18.176C55.7479 17.747 54.9259 16.915 54.9259 15.566C54.9259 13.896 56.3819 12.749 58.4469 12.749C60.4929 12.749 61.8949 13.896 61.9419 15.566H60.4799C60.3919 14.6 59.5939 14.017 58.4269 14.017C57.2599 14.017 56.4619 14.607 56.4619 15.466C56.4619 16.15 56.9719 16.553 58.2189 16.866L59.2849 17.128C61.2709 17.597 62.0959 18.396 62.0959 19.811C62.0959 21.622 60.6539 22.756 58.3599 22.756C56.2139 22.754 54.7649 21.646 54.6709 19.896H54.6729ZM79.1539 19.096C79.1539 16.883 80.4349 15.448 82.4199 15.448C84.3719 15.448 85.5999 16.789 85.5999 18.929V19.429H80.6139V19.517C80.5907 19.7769 80.6231 20.0388 80.709 20.2852C80.7949 20.5317 80.9323 20.757 81.112 20.9462C81.2918 21.1354 81.5098 21.2842 81.7515 21.3826C81.9932 21.481 82.2531 21.5268 82.5139 21.517C82.8562 21.5485 83.1996 21.469 83.4931 21.2901C83.7867 21.1113 84.0149 20.8426 84.1439 20.524H85.5199C85.3608 21.1909 84.9653 21.7775 84.4066 22.1749C83.8479 22.5723 83.164 22.7535 82.4819 22.685C80.4259 22.68 79.1509 21.305 79.1509 19.098L79.1539 19.096ZM81.1509 17.144C80.9838 17.3105 80.8514 17.5084 80.7612 17.7264C80.6711 17.9444 80.6251 18.1781 80.6259 18.414H84.1509C84.1634 18.1805 84.1277 17.947 84.046 17.7281C83.9642 17.5091 83.8382 17.3093 83.6757 17.1412C83.5132 16.9731 83.3179 16.8403 83.1018 16.7512C82.8857 16.662 82.6536 16.6184 82.4199 16.623H82.4089C81.9372 16.6236 81.4849 16.8109 81.1509 17.144ZM67.3509 19.065C67.3509 16.845 68.6589 15.45 70.6979 15.45C72.7369 15.45 74.0449 16.85 74.0449 19.065C74.0449 21.28 72.7499 22.68 70.6979 22.68C68.6459 22.68 67.3419 21.291 67.3419 19.065H67.3509ZM68.8259 19.065C68.8259 20.594 69.5259 21.486 70.6979 21.486C71.8699 21.486 72.5699 20.594 72.5699 19.065C72.5699 17.536 71.8699 16.643 70.6979 16.643C69.5259 16.643 68.8179 17.548 68.8179 19.065H68.8259ZM65.7509 22.633C64.3229 22.633 63.7649 22.097 63.7649 20.733V16.683H62.7429V15.539H63.7689V13.866H65.2249V15.539H66.5669V16.687H65.2239V20.577C65.2239 21.177 65.4929 21.463 66.0829 21.463C66.242 21.46 66.4009 21.449 66.5589 21.43V22.57C66.3204 22.6146 66.0784 22.6371 65.8359 22.637L65.7509 22.633ZM75.2269 22.593V15.539H76.6089V16.739H76.6509C76.7442 16.3633 76.9643 16.0313 77.274 15.799C77.5837 15.5667 77.9641 15.4484 78.3509 15.464C78.519 15.4631 78.6868 15.4812 78.8509 15.518V16.873C78.6401 16.8084 78.4202 16.7787 78.1999 16.785C77.9894 16.7764 77.7797 16.8135 77.585 16.8936C77.3902 16.9738 77.2151 17.0951 77.0717 17.2493C76.9282 17.4034 76.8198 17.5868 76.7539 17.7868C76.688 17.9868 76.6662 18.1987 76.6899 18.408V22.594L75.2269 22.593ZM34.1139 22.593L33.2289 19.977H29.5439L28.6579 22.593H27.0949L30.5899 12.914H32.2129L35.7079 22.593H34.1139ZM29.9259 18.769H32.8509L31.4079 14.523H31.3679L29.9259 18.769ZM9.59886 20.356C8.09886 18.162 6.92786 14.173 8.49886 11.456C8.86078 10.8068 9.38457 10.2623 10.0193 9.87558C10.654 9.48883 11.378 9.27296 12.1209 9.24896C13.2709 9.22496 14.3389 10.026 15.0449 10.026C15.7509 10.026 17.0579 9.06796 18.4189 9.21196C19.0564 9.23183 19.6806 9.40018 20.2416 9.70363C20.8027 10.0071 21.2852 10.4373 21.6509 10.96C21.0745 11.3143 20.5972 11.8086 20.2633 12.3969C19.9293 12.9853 19.7496 13.6485 19.7409 14.325C19.7417 15.086 19.9665 15.8299 20.3873 16.464C20.808 17.0981 21.406 17.5944 22.1069 17.891C21.8312 18.7858 21.4161 19.6315 20.8769 20.397C20.1519 21.481 19.3919 22.541 18.1849 22.561C17.0129 22.588 16.6189 21.871 15.2749 21.871C13.9309 21.871 13.4979 22.542 12.3749 22.588H12.3149C11.1979 22.589 10.3379 21.412 9.59886 20.356ZM43.6079 11.539V10.939C43.6828 10.9486 43.7583 10.9529 43.8339 10.952C43.9815 10.963 44.128 10.9191 44.2453 10.8287C44.3625 10.7382 44.4421 10.6076 44.4689 10.462L44.5209 10.292L43.2509 6.76896H44.0049L44.8849 9.55696H44.9399L45.8169 6.76896H46.5509L45.2419 10.424C44.9419 11.278 44.6109 11.552 43.8949 11.552C43.8369 11.552 43.6729 11.546 43.6079 11.539ZM39.4079 11.449V6.76896H40.0749V7.34896H40.1269C40.2337 7.15169 40.393 6.98774 40.5871 6.87517C40.7812 6.7626 41.0026 6.70578 41.2269 6.71096C42.1199 6.71096 42.6839 7.41096 42.6839 8.52296C42.6839 9.63496 42.1219 10.339 41.2359 10.339C41.0183 10.3536 40.8012 10.3059 40.6099 10.2014C40.4185 10.0969 40.261 9.93992 40.1559 9.74896H40.1009V11.449H39.4079ZM40.0879 8.52896C40.0879 9.26096 40.4529 9.71796 41.0329 9.71796C41.6129 9.71796 41.9739 9.26996 41.9739 8.52596C41.9739 7.78196 41.6229 7.33596 41.0359 7.33596C40.4489 7.33596 40.0879 7.79096 40.0879 8.52596V8.52896ZM28.3949 10.074C28.2318 9.94553 28.0962 9.78558 27.9962 9.60364C27.8962 9.4217 27.8339 9.2215 27.8129 9.01497H28.5069C28.5489 9.45997 28.9569 9.74696 29.5609 9.74696C30.1649 9.74696 30.5609 9.42496 30.5609 8.96996C30.5609 8.51497 30.1909 8.22496 29.5419 8.22496H28.9009V7.59396H29.5229C29.6299 7.60748 29.7386 7.59863 29.8421 7.56799C29.9456 7.53734 30.0415 7.48555 30.124 7.41591C30.2064 7.34626 30.2735 7.26027 30.321 7.16338C30.3684 7.06648 30.3953 6.96078 30.3999 6.85296C30.3999 6.42396 30.0769 6.14696 29.5299 6.14696C29.4202 6.13157 29.3085 6.13831 29.2015 6.16679C29.0945 6.19526 28.9942 6.24489 28.9067 6.31276C28.8192 6.38062 28.7461 6.46533 28.6919 6.56189C28.6376 6.65846 28.6033 6.76491 28.5909 6.87496H27.9079C27.9195 6.6752 27.9722 6.47997 28.0626 6.30145C28.153 6.12293 28.2792 5.96495 28.4333 5.83735C28.5875 5.70976 28.7663 5.61528 28.9585 5.55981C29.1508 5.50435 29.3524 5.48908 29.5509 5.51496C30.4669 5.51496 31.1119 6.02796 31.1119 6.76596C31.1137 7.01316 31.0309 7.25355 30.8772 7.44714C30.7235 7.64072 30.5081 7.77582 30.2669 7.82996V7.88496C30.552 7.89872 30.8202 8.02453 31.0131 8.23503C31.206 8.44552 31.308 8.72367 31.2969 9.00897C31.2757 9.21466 31.2137 9.41406 31.1144 9.59548C31.0152 9.7769 30.8808 9.93669 30.719 10.0655C30.5572 10.1943 30.3714 10.2895 30.1723 10.3456C29.9733 10.4016 29.7651 10.4174 29.5599 10.392C29.3541 10.42 29.1448 10.4063 28.9445 10.3517C28.7441 10.2971 28.5579 10.2026 28.3949 10.074ZM60.0139 10.347C59.7828 10.3533 59.5532 10.3093 59.3408 10.218C59.1285 10.1267 58.9386 9.99036 58.7842 9.81837C58.6298 9.64637 58.5146 9.44287 58.4467 9.22195C58.3788 9.00103 58.3597 8.76798 58.3909 8.53896C58.3601 8.30912 58.379 8.07534 58.4464 7.85345C58.5138 7.63156 58.628 7.42673 58.7814 7.25283C58.9349 7.07893 59.1238 6.94002 59.3356 6.8455C59.5474 6.75098 59.777 6.70305 60.0089 6.70496C60.9859 6.70496 61.5749 7.37296 61.5749 8.47496V8.71596H59.0979V8.75496C59.087 8.88377 59.1031 9.01343 59.1453 9.13562C59.1875 9.25781 59.2548 9.36982 59.3429 9.46446C59.4309 9.5591 59.5378 9.63428 59.6566 9.68517C59.7754 9.73606 59.9036 9.76154 60.0329 9.75996C60.1985 9.77977 60.3662 9.74984 60.5147 9.67397C60.6633 9.59811 60.7858 9.47974 60.8669 9.33396H61.5349C61.4408 9.65505 61.2368 9.9328 60.9585 10.1186C60.6802 10.3043 60.3455 10.3862 60.0129 10.35L60.0139 10.347ZM59.3609 7.55296C59.2761 7.63784 59.2092 7.7388 59.164 7.84991C59.1189 7.96102 59.0964 8.08004 59.0979 8.19996H60.8699C60.8785 8.08227 60.8625 7.96407 60.8228 7.85293C60.7831 7.74179 60.7207 7.64018 60.6394 7.55459C60.5582 7.46901 60.4599 7.40135 60.351 7.35595C60.2421 7.31055 60.1248 7.28842 60.0069 7.29096H59.9939C59.7566 7.29144 59.5291 7.3856 59.3609 7.55296ZM47.0899 9.28296H47.7799C47.8479 9.59296 48.1379 9.75396 48.5429 9.75396C49.0049 9.75396 49.2879 9.55396 49.2879 9.23496C49.2879 8.89596 49.0329 8.73496 48.5429 8.73496H48.0179V8.19696H48.5339C48.9529 8.19696 49.1659 8.03596 49.1659 7.74196C49.1659 7.48496 48.9599 7.28796 48.5339 7.28796C48.1469 7.28796 47.8629 7.45196 47.8179 7.72896H47.1509C47.2005 7.41049 47.3733 7.12427 47.632 6.93198C47.8907 6.73969 48.2146 6.65673 48.5339 6.70096C49.3689 6.70096 49.8459 7.07796 49.8459 7.66996C49.8499 7.83515 49.7971 7.9967 49.6962 8.12758C49.5954 8.25847 49.4526 8.35074 49.2919 8.38896V8.44396C49.4832 8.46869 49.6589 8.56277 49.7855 8.70838C49.9121 8.85399 49.9809 9.04101 49.9789 9.23396C49.9789 9.90096 49.4109 10.342 48.5439 10.342C47.7769 10.339 47.1509 9.99196 47.0899 9.28296ZM32.4369 10.071C32.3266 9.97195 32.2384 9.85095 32.1777 9.71574C32.1171 9.58054 32.0855 9.43414 32.0849 9.28596C32.0849 8.65496 32.5559 8.28596 33.3899 8.23896L34.3409 8.18396V7.88396C34.3409 7.51296 34.0969 7.30396 33.6229 7.30396C33.2359 7.30396 32.9689 7.44597 32.8909 7.69396H32.2199C32.2909 7.09397 32.8579 6.70396 33.6549 6.70396C34.5349 6.70396 35.0309 7.14196 35.0309 7.88396V10.284H34.3639V9.78596H34.3089C34.1977 9.96396 34.041 10.1091 33.855 10.2063C33.669 10.3035 33.4605 10.3493 33.2509 10.339C33.1035 10.3542 32.9546 10.3384 32.8137 10.2926C32.6728 10.2468 32.5431 10.172 32.4329 10.073L32.4369 10.071ZM33.4839 8.74796C33.0009 8.77996 32.7839 8.94796 32.7839 9.25396C32.7839 9.55997 33.0579 9.75396 33.4339 9.75396C33.5442 9.76508 33.6557 9.7539 33.7617 9.72109C33.8677 9.68827 33.966 9.6345 34.0508 9.56295C34.1356 9.49141 34.2051 9.40356 34.2553 9.30461C34.3055 9.20566 34.3352 9.09764 34.3429 8.98696V8.69296L33.4839 8.74796ZM64.4709 10.279V6.76896H66.0509C66.7379 6.76896 67.1399 7.11696 67.1399 7.66096C67.1409 7.83372 67.0825 8.00158 66.9746 8.13647C66.8666 8.27135 66.7156 8.36508 66.5469 8.40196V8.45696C66.7522 8.46954 66.9447 8.56072 67.0846 8.71155C67.2244 8.86239 67.3008 9.06129 67.2979 9.26696C67.2979 9.87896 66.8379 10.279 66.0679 10.279H64.4709ZM65.1579 9.74696H65.9789C66.3879 9.74696 66.6079 9.56696 66.6079 9.23496C66.6079 8.88396 66.3599 8.71896 65.8919 8.71896H65.1579V9.74696ZM65.1579 8.20996H65.8439C66.2629 8.20996 66.4629 8.04896 66.4629 7.75196C66.4629 7.47796 66.2879 7.30096 65.9209 7.30096H65.1579V8.20996ZM56.0049 10.279V7.35196H54.8989V6.76896H57.7989V7.35196H56.6979V10.279H56.0049ZM53.3339 10.279V7.85196H53.2829L51.6619 10.279H50.9759V6.76896H51.6619V9.18296H51.7169L53.3339 6.76896H54.0209V10.279H53.3339ZM36.1759 10.279V6.76896H38.4869V7.35196H36.8699V10.279H36.1759ZM14.9069 9.00796C14.8747 8.51512 14.9401 8.02077 15.0991 7.5532C15.2582 7.08562 15.5079 6.65398 15.8339 6.28296C16.5006 5.52386 17.429 5.04396 18.4339 4.93896C18.5133 5.96314 18.1905 6.97796 17.5339 7.76796C17.2222 8.1558 16.8274 8.46867 16.3785 8.68347C15.9297 8.89826 15.4384 9.0095 14.9409 9.00897L14.9069 9.00796Z" fill="black"/>
</svg>
