<svg width="18" height="18" viewBox="0 0 18 18" fill="none" xmlns="http://www.w3.org/2000/svg">
<path d="M2.744 1H15.256C15.7185 1 16.1621 1.18374 16.4892 1.51081C16.8163 1.83787 17 2.28146 17 2.744V15.256C17 15.7185 16.8163 16.1621 16.4892 16.4892C16.1621 16.8163 15.7185 17 15.256 17H2.744C2.28146 17 1.83787 16.8163 1.51081 16.4892C1.18374 16.1621 1 15.7185 1 15.256V2.744C1 2.28146 1.18374 1.83787 1.51081 1.51081C1.83787 1.18374 2.28146 1 2.744 1Z" stroke="#B3B3B3" stroke-width="2" stroke-linecap="round" stroke-linejoin="round"/>
<path d="M13 13H17" stroke="#B3B3B3" stroke-width="2" stroke-linecap="round" stroke-linejoin="round"/>
<path d="M1 13H5" stroke="#B3B3B3" stroke-width="2" stroke-linecap="round" stroke-linejoin="round"/>
<path d="M13 1V17" stroke="#B3B3B3" stroke-width="2" stroke-linecap="round" stroke-linejoin="round"/>
<path d="M5 1V17" stroke="#B3B3B3" stroke-width="2" stroke-linecap="round" stroke-linejoin="round"/>
<path d="M1 9H17" stroke="#B3B3B3" stroke-width="2" stroke-linecap="round" stroke-linejoin="round"/>
<path d="M13 5H17" stroke="#B3B3B3" stroke-width="2" stroke-linecap="round" stroke-linejoin="round"/>
<path d="M1 5H5" stroke="#B3B3B3" stroke-width="2" stroke-linecap="round" stroke-linejoin="round"/>
</svg>
