<svg width="20" height="22" viewBox="0 0 20 22" fill="none" xmlns="http://www.w3.org/2000/svg">
<path d="M1 14C1 11.1911 1 9.78661 1.67412 8.77772C1.96596 8.34096 2.34096 7.96596 2.77772 7.67412C3.78661 7 5.19108 7 8 7H12C14.8089 7 16.2134 7 17.2223 7.67412C17.659 7.96596 18.034 8.34096 18.3259 8.77772C19 9.78661 19 11.1911 19 14C19 16.8089 19 18.2134 18.3259 19.2223C18.034 19.659 17.659 20.034 17.2223 20.3259C16.2134 21 14.8089 21 12 21H8C5.19108 21 3.78661 21 2.77772 20.3259C2.34096 20.034 1.96596 19.659 1.67412 19.2223C1 18.2134 1 16.8089 1 14Z" stroke="white" stroke-width="2" stroke-linecap="round" stroke-linejoin="round"/>
<path d="M17 7C16.9821 5.76022 16.89 5.05733 16.4182 4.58579C15.8321 4 14.8888 4 13.0022 4H6.99783C5.11118 4 4.16786 4 3.58176 4.58579C3.10996 5.05733 3.01794 5.76022 3 7" stroke="white" stroke-width="2" stroke-linecap="round" stroke-linejoin="round"/>
<path d="M15 4C15 3.06812 15 2.60218 14.8478 2.23463C14.6448 1.74458 14.2554 1.35523 13.7654 1.15224C13.3978 1 12.9319 1 12 1H8C7.06812 1 6.60218 1 6.23463 1.15224C5.74458 1.35523 5.35523 1.74458 5.15224 2.23463C5 2.60218 5 3.06812 5 4" stroke="white" stroke-width="2" stroke-linecap="round" stroke-linejoin="round"/>
</svg>
