<svg width="94" height="30" viewBox="0 0 94 30" fill="none" xmlns="http://www.w3.org/2000/svg">
<path d="M1.31183e-09 12.1032C1.31183e-09 6.49124 0 3.68524 1.743 1.94124C3.486 0.197242 6.293 0.198242 11.905 0.198242H81.886C87.5 0.198242 90.3 0.198242 92.048 1.94124C93.796 3.68424 93.791 6.49024 93.791 12.1032V18.0982C93.791 23.7102 93.791 26.5162 92.048 28.2602C90.305 30.0042 87.5 29.9982 81.886 29.9982H11.905C6.293 29.9982 3.487 29.9982 1.743 28.2552C-0.000999928 26.5122 1.31183e-09 23.7072 1.31183e-09 18.0982V12.1032Z" fill="#808080"/>
<path d="M83.089 24.8619L84.502 21.6479L81.979 15.9049H83.463L85.244 19.9579L87.025 15.9049H88.509L84.57 24.8619H83.089ZM48.232 23.0439L49.418 22.5439C49.5408 22.8645 49.7571 23.1408 50.0389 23.3369C50.3206 23.533 50.6547 23.64 50.998 23.6439C51.2209 23.6557 51.4437 23.6191 51.6512 23.5368C51.8586 23.4544 52.0458 23.3282 52.2 23.1667C52.3541 23.0053 52.4715 22.8124 52.5442 22.6014C52.6169 22.3903 52.6431 22.1661 52.621 21.9439V21.3359C52.418 21.5857 52.1588 21.7839 51.8646 21.9142C51.5703 22.0446 51.2494 22.1034 50.928 22.0859C50.1329 22.0473 49.3833 21.7033 48.8355 21.1256C48.2878 20.5479 47.9842 19.7811 47.9879 18.9851C47.9916 18.189 48.3025 17.4251 48.8556 16.8525C49.4088 16.28 50.1615 15.9431 50.957 15.9119C51.2688 15.9044 51.5786 15.9637 51.8656 16.0858C52.1527 16.2079 52.4102 16.3901 52.621 16.6199V16.0979H53.914V21.6429C53.914 23.8219 52.657 24.8609 51.007 24.8609C50.4162 24.8685 49.8365 24.6996 49.3422 24.3759C48.8479 24.0523 48.4613 23.5885 48.232 23.0439ZM49.352 19.0139C49.3378 19.249 49.3712 19.4845 49.45 19.7064C49.5289 19.9283 49.6516 20.132 49.8109 20.3055C49.9702 20.4789 50.1629 20.6184 50.3773 20.7157C50.5917 20.8131 50.8236 20.8662 51.059 20.8719C51.2933 20.8649 51.5237 20.8102 51.7362 20.7111C51.9486 20.612 52.1386 20.4706 52.2945 20.2955C52.4504 20.1205 52.569 19.9155 52.6431 19.6931C52.7171 19.4707 52.745 19.2355 52.725 19.0019C52.7435 18.7696 52.7152 18.5358 52.6419 18.3146C52.5686 18.0933 52.4516 17.889 52.298 17.7136C52.1444 17.5383 51.9572 17.3955 51.7475 17.2937C51.5378 17.1919 51.3098 17.1332 51.077 17.1209C50.8379 17.1276 50.6026 17.1823 50.3852 17.282C50.1678 17.3817 49.9727 17.5242 49.8117 17.701C49.6506 17.8779 49.5269 18.0854 49.4479 18.3111C49.3689 18.5369 49.3363 18.7753 49.352 19.0139ZM15.094 17.7139L17.109 19.7259L8.60901 24.3789C8.54948 24.412 8.48766 24.4408 8.42401 24.4649L15.094 17.7139ZM7.53301 23.6939C7.53001 23.0019 7.47001 12.0219 7.47001 11.1979C7.45351 11.0528 7.47671 10.906 7.53711 10.773C7.59752 10.6401 7.69287 10.526 7.81301 10.4429L14.803 17.4219L7.84701 24.4629C7.7354 24.3705 7.64834 24.252 7.59357 24.1178C7.53879 23.9837 7.51799 23.8381 7.53301 23.6939ZM24.433 17.2749C24.4567 16.0038 24.9753 14.7921 25.8787 13.8976C26.782 13.003 27.9987 12.4962 29.27 12.4849C29.8817 12.4742 30.4896 12.5843 31.0587 12.8087C31.6279 13.0331 32.1472 13.3676 32.587 13.7929L31.67 14.7359C31.0367 14.1284 30.1926 13.79 29.315 13.7919C28.3891 13.7919 27.5012 14.1597 26.8465 14.8144C26.1918 15.4691 25.824 16.3571 25.824 17.2829C25.824 18.2088 26.1918 19.0968 26.8465 19.7515C27.5012 20.4061 28.3891 20.7739 29.315 20.7739C30.0746 20.8373 30.8285 20.5981 31.4127 20.1083C31.9968 19.6186 32.3639 18.918 32.434 18.1589H29.306V16.8559H33.706C33.7643 17.1411 33.7908 17.4319 33.785 17.7229C33.805 18.3091 33.7028 18.893 33.4849 19.4375C33.2671 19.982 32.9383 20.4752 32.5194 20.8857C32.1006 21.2963 31.6009 21.6152 31.0522 21.8222C30.5034 22.0291 29.9176 22.1196 29.332 22.0879C28.0441 22.0978 26.8049 21.5966 25.886 20.6942C24.9671 19.7918 24.4435 18.5618 24.43 17.2739L24.433 17.2749ZM57.065 18.9879C57.0428 18.5944 57.1006 18.2005 57.2348 17.8299C57.3691 17.4594 57.577 17.1198 57.846 16.8318C58.1151 16.5438 58.4397 16.3133 58.8002 16.1542C59.1608 15.995 59.5499 15.9106 59.944 15.9059C60.5036 15.9156 61.0474 16.0932 61.5049 16.4155C61.9624 16.7379 62.3126 17.1902 62.51 17.7139L62.725 18.2139L58.583 19.9359C58.7131 20.2252 58.9269 20.4688 59.1967 20.6354C59.4666 20.8021 59.7801 20.8841 60.097 20.8709C60.4015 20.8754 60.7018 20.7992 60.9674 20.6501C61.2329 20.501 61.4543 20.2843 61.609 20.0219L62.676 20.7319C62.3874 21.1508 62.0011 21.4929 61.5505 21.7289C61.0999 21.9648 60.5986 22.0873 60.09 22.0859C59.6845 22.0924 59.2819 22.0161 58.9069 21.8617C58.5319 21.7073 58.1923 21.4781 57.9088 21.1881C57.6253 20.8981 57.4039 20.5533 57.2582 20.1748C57.1124 19.7964 57.0453 19.3922 57.061 18.9869L57.065 18.9879ZM58.37 18.9059L61.134 17.7509C61.0258 17.544 60.861 17.3722 60.6588 17.2555C60.4565 17.1388 60.2253 17.0821 59.992 17.0919C59.7661 17.1037 59.5448 17.16 59.3407 17.2577C59.1367 17.3554 58.954 17.4925 58.8032 17.6612C58.6525 17.8298 58.5365 18.0266 58.4622 18.2402C58.3878 18.4539 58.3565 18.6801 58.37 18.9059ZM41.17 18.9699C41.1724 18.3584 41.3556 17.7612 41.6966 17.2535C42.0377 16.7458 42.5212 16.3503 43.0865 16.1168C43.6518 15.8834 44.2734 15.8223 44.8733 15.9413C45.4732 16.0604 46.0245 16.3542 46.4578 16.7858C46.8911 17.2174 47.187 17.7676 47.3084 18.367C47.4297 18.9664 47.371 19.5883 47.1397 20.1545C46.9084 20.7206 46.5148 21.2057 46.0084 21.5487C45.5021 21.8917 44.9056 22.0772 44.294 22.0819C43.882 22.0922 43.4722 22.0188 43.0893 21.8661C42.7065 21.7135 42.3585 21.4849 42.0665 21.194C41.7745 20.9031 41.5445 20.5561 41.3904 20.1738C41.2364 19.7915 41.1614 19.382 41.17 18.9699ZM42.524 18.9889C42.5094 19.2273 42.5437 19.4662 42.6248 19.6908C42.7059 19.9155 42.832 20.1212 42.9954 20.2954C43.1588 20.4695 43.3561 20.6085 43.5752 20.7037C43.7942 20.7988 44.0304 20.8482 44.2692 20.8489C44.5081 20.8495 44.7445 20.8013 44.964 20.7072C45.1836 20.6132 45.3816 20.4753 45.5459 20.3019C45.7102 20.1286 45.8374 19.9235 45.9196 19.6993C46.0018 19.4751 46.0373 19.2364 46.024 18.9979C46.0386 18.7596 46.0043 18.5207 45.9232 18.2961C45.8421 18.0714 45.716 17.8657 45.5526 17.6915C45.3892 17.5173 45.1919 17.3784 44.9728 17.2832C44.7538 17.1881 44.5176 17.1387 44.2788 17.138C44.0399 17.1374 43.8035 17.1856 43.584 17.2797C43.3644 17.3737 43.1664 17.5116 43.0021 17.685C42.8378 17.8583 42.7106 18.0633 42.6284 18.2876C42.5462 18.5118 42.5107 18.7505 42.524 18.9889ZM34.348 18.9699C34.3504 18.3584 34.5336 17.7612 34.8746 17.2535C35.2157 16.7458 35.6992 16.3503 36.2645 16.1168C36.8298 15.8834 37.4515 15.8223 38.0513 15.9413C38.6512 16.0604 39.2025 16.3542 39.6358 16.7858C40.0691 17.2174 40.365 17.7676 40.4864 18.367C40.6077 18.9664 40.549 19.5883 40.3177 20.1545C40.0864 20.7206 39.6928 21.2057 39.1864 21.5487C38.6801 21.8917 38.0836 22.0772 37.472 22.0819C37.0603 22.0916 36.6509 22.0178 36.2685 21.8649C35.8862 21.7121 35.5387 21.4833 35.2471 21.1925C34.9556 20.9017 34.7259 20.5548 34.5721 20.1728C34.4183 19.7909 34.3434 19.3817 34.352 18.9699H34.348ZM35.702 18.9889C35.6874 19.2273 35.7217 19.4662 35.8028 19.6908C35.8839 19.9155 36.01 20.1212 36.1734 20.2954C36.3368 20.4695 36.5341 20.6085 36.7532 20.7037C36.9722 20.7988 37.2084 20.8482 37.4472 20.8489C37.6861 20.8495 37.9225 20.8013 38.142 20.7072C38.3616 20.6132 38.5596 20.4753 38.7239 20.3019C38.8882 20.1286 39.0154 19.9235 39.0976 19.6993C39.1798 19.4751 39.2153 19.2364 39.202 18.9979C39.2166 18.7596 39.1823 18.5207 39.1012 18.2961C39.0202 18.0714 38.894 17.8657 38.7306 17.6915C38.5672 17.5173 38.3699 17.3784 38.1508 17.2832C37.9318 17.1881 37.6956 17.1387 37.4568 17.138C37.2179 17.1374 36.9815 17.1856 36.762 17.2797C36.5424 17.3737 36.3444 17.5116 36.1801 17.685C36.0158 17.8583 35.8886 18.0633 35.8064 18.2876C35.7242 18.5118 35.6887 18.7505 35.702 18.9889ZM76.37 21.4149C76.1751 21.171 76.0331 20.8892 75.9531 20.5874C75.873 20.2856 75.8566 19.9704 75.905 19.6619C75.9837 19.1591 76.2343 18.6991 76.6141 18.3603C76.9939 18.0215 77.4795 17.8249 77.988 17.8039C78.6908 17.7622 79.3955 17.8442 80.07 18.0459C79.921 16.5629 77.663 16.2459 76.87 17.6289L75.776 16.8949C77.395 14.4629 81.676 15.2569 81.46 18.6309V21.9029H80.101V21.1689C79.799 21.5499 79.3859 21.8274 78.919 21.9629C78.639 22.0393 78.3502 22.0783 78.06 22.0789C77.7477 22.0909 77.4364 22.0381 77.1455 21.9238C76.8547 21.8095 76.5906 21.6363 76.37 21.4149ZM77.319 19.8959C77.3179 20.0491 77.3544 20.2002 77.4252 20.3359C77.496 20.4717 77.5991 20.5881 77.7253 20.6748C77.8515 20.7616 77.997 20.816 78.1492 20.8335C78.3013 20.8509 78.4554 20.8308 78.598 20.7749C78.9612 20.6858 79.293 20.4988 79.5575 20.2344C79.8219 19.97 80.0089 19.6381 80.098 19.2749C79.7308 19.1466 79.3515 19.0558 78.966 19.0039C78.8267 18.9825 78.686 18.9714 78.545 18.9709C77.695 18.9669 77.326 19.4359 77.317 19.8949L77.319 19.8959ZM73.18 21.9019V12.8019H74.539V21.9019H73.18ZM65.971 21.9019V12.8019H69.259C70.0281 12.8019 70.7658 13.1075 71.3096 13.6513C71.8535 14.1952 72.159 14.9328 72.159 15.7019C72.159 16.4711 71.8535 17.2087 71.3096 17.7526C70.7658 18.2964 70.0281 18.6019 69.259 18.6019H67.328V21.9019H65.971ZM67.328 17.2359H69.257C69.665 17.2359 70.0564 17.0739 70.3449 16.7853C70.6334 16.4968 70.7955 16.1055 70.7955 15.6974C70.7955 15.2894 70.6334 14.8981 70.3449 14.6096C70.0564 14.321 69.665 14.1589 69.257 14.1589H67.328V17.2359ZM54.953 21.9009V12.8009H56.312V21.9009H54.953ZM15.383 17.4209L17.483 15.2949L20.376 16.8729C21.088 17.2619 20.724 17.7479 20.376 17.9379L17.485 19.5199L15.383 17.4209ZM8.31201 10.3599C8.41684 10.3724 8.51851 10.4039 8.61201 10.4529L17.112 15.0899L15.097 17.1299L8.31201 10.3599ZM57.895 9.47795C57.6225 9.28602 57.4289 9.00178 57.35 8.67795L57.95 8.44195C57.9905 8.64313 58.0959 8.82546 58.25 8.96095C58.3949 9.08591 58.5807 9.15319 58.772 9.14995C58.9756 9.15541 59.1737 9.08401 59.327 8.94995C59.3997 8.88864 59.4581 8.81204 59.4978 8.72562C59.5376 8.6392 59.5578 8.54507 59.557 8.44995C59.5576 8.32221 59.5184 8.19745 59.445 8.09295C59.3671 7.98177 59.2612 7.89312 59.138 7.83595C59.0054 7.77255 58.86 7.7404 58.713 7.74195H58.365V7.16495H58.67C58.8622 7.17166 59.0505 7.10961 59.201 6.98995C59.2706 6.93377 59.3261 6.86211 59.3631 6.78068C59.4 6.69925 59.4175 6.61031 59.414 6.52095C59.4151 6.4387 59.3978 6.35725 59.3631 6.28264C59.3285 6.20803 59.2775 6.14217 59.214 6.08995C59.0764 5.97415 58.9008 5.91326 58.721 5.91895C58.5571 5.91426 58.3973 5.97097 58.273 6.07795C58.1548 6.17787 58.0669 6.30877 58.019 6.45595L57.449 6.22095C57.54 5.97759 57.6964 5.76408 57.901 5.60395C58.1368 5.41911 58.4306 5.32412 58.73 5.33595C58.9661 5.33141 59.1999 5.38317 59.412 5.48695C59.6022 5.57936 59.7634 5.72221 59.878 5.89995C59.9906 6.077 60.049 6.28313 60.046 6.49295C60.0538 6.67999 60.0072 6.86529 59.9119 7.02642C59.8166 7.18756 59.6767 7.31764 59.509 7.40095V7.43595C59.7045 7.5237 59.8732 7.66173 59.998 7.83595C60.1275 8.02034 60.1938 8.24172 60.187 8.46695C60.1897 8.699 60.1251 8.92686 60.001 9.12295C59.876 9.32055 59.6997 9.48057 59.491 9.58595C59.2662 9.69996 59.017 9.75762 58.765 9.75395C58.4535 9.75383 58.1496 9.65743 57.895 9.47795ZM25.92 9.45995C25.5872 9.2709 25.3125 8.9942 25.126 8.65995C24.9323 8.3184 24.8326 7.93159 24.837 7.53895C24.8327 7.14632 24.9324 6.75957 25.126 6.41795C25.3128 6.08391 25.5874 5.80727 25.92 5.61795C26.2612 5.42672 26.647 5.32941 27.038 5.33595C27.3335 5.32824 27.627 5.38612 27.8974 5.50543C28.1679 5.62474 28.4085 5.80251 28.602 6.02595L28.148 6.46895C28.0149 6.30579 27.8485 6.17285 27.66 6.07895C27.4669 5.98926 27.2559 5.9448 27.043 5.94895C26.7684 5.94663 26.498 6.01554 26.258 6.14895C26.0228 6.28058 25.8286 6.47475 25.697 6.70995C25.5562 6.96535 25.4851 7.25335 25.491 7.54495C25.485 7.83655 25.5561 8.12458 25.697 8.37995C25.8283 8.61543 26.0225 8.80969 26.258 8.94095C26.4979 9.07465 26.7684 9.14358 27.043 9.14095C27.2775 9.14188 27.5089 9.08813 27.7189 8.98398C27.929 8.87983 28.1118 8.72813 28.253 8.54095L28.719 8.98995C28.5167 9.22834 28.2648 9.41978 27.981 9.55095C27.6539 9.69685 27.2974 9.76475 26.9395 9.74931C26.5817 9.73386 26.2323 9.63549 25.919 9.46195L25.92 9.45995ZM55.98 9.65995V7.25995L56.016 6.44595H55.98L54.056 9.65595H53.348V5.42995H53.991V7.76695L53.956 8.58095H53.991L55.886 5.42995H56.624V9.65494L55.98 9.65995ZM48.245 9.65995V5.42995H48.894V6.93595H49.794C50.0472 6.93352 50.2975 6.98893 50.526 7.09795C50.7518 7.20387 50.9417 7.37333 51.0726 7.58559C51.2035 7.79784 51.2697 8.04366 51.263 8.29295C51.2688 8.54836 51.1993 8.79983 51.063 9.01595C50.9313 9.22079 50.7454 9.38519 50.526 9.49095C50.2981 9.60188 50.0475 9.65836 49.794 9.65595L48.245 9.65995ZM48.894 9.05195H49.838C49.9808 9.0547 50.1217 9.01802 50.245 8.94595C50.3596 8.87924 50.4536 8.78239 50.517 8.66595C50.579 8.55283 50.6115 8.42593 50.6115 8.29695C50.6115 8.16796 50.579 8.04106 50.517 7.92795C50.4533 7.81094 50.3594 7.71319 50.245 7.64495C50.1223 7.57098 49.9812 7.53319 49.838 7.53595H48.894V9.05195ZM45.743 9.65995V6.04395H44.557V5.42995H47.57V6.04395H46.39V9.65494L45.743 9.65995ZM43.931 9.65995L43.542 8.57495H41.819L41.43 9.65995H40.716L42.309 5.42995H43.047L44.647 9.65494L43.931 9.65995ZM42.504 6.67295L42.032 7.97295H43.332L42.86 6.67295L42.698 6.18895H42.662L42.504 6.67295ZM39.504 9.65595V7.77295C39.2346 8.00718 38.8869 8.13142 38.53 8.12095C38.2899 8.12406 38.0524 8.07026 37.837 7.96395C37.6344 7.86355 37.4652 7.70654 37.35 7.51195C37.2272 7.29956 37.1659 7.05718 37.173 6.81195V5.42995H37.828V6.70495C37.8212 6.81402 37.8376 6.9233 37.8762 7.02553C37.9149 7.12777 37.9748 7.22062 38.052 7.29795C38.2172 7.44301 38.4324 7.51798 38.652 7.50695C38.8149 7.51 38.9763 7.47551 39.1237 7.40614C39.2711 7.33678 39.4005 7.2344 39.502 7.10695V5.42995H40.145V9.65494L39.504 9.65595ZM36.347 9.65595L35.958 8.57095H34.23L33.841 9.65595H33.127L34.72 5.42995H35.458L37.058 9.65494L36.347 9.65595ZM34.916 6.67295L34.444 7.96795H35.744L35.27 6.67295L35.11 6.18895H35.07L34.916 6.67295ZM31.87 9.65494L30.13 7.71995H30.095V9.65494H29.446V5.42995H30.095V7.47795H30.13L31.812 5.42995H32.626V5.46595L30.844 7.57795L32.72 9.61995V9.65494H31.87Z" fill="black"/>
</svg>
