<svg width="34" height="28" viewBox="0 0 34 28" fill="none" xmlns="http://www.w3.org/2000/svg">
<path d="M5.00004 2H29C29.7949 2.00227 30.5567 2.31705 31.1188 2.87557C31.6809 3.43409 31.9977 4.19095 32 4.98082V22.8653C31.9977 23.6552 31.6809 24.4121 31.1188 24.9706C30.5567 25.5291 29.7949 25.8439 29 25.8462H5.00004C4.20508 25.8439 3.44334 25.5291 2.88121 24.9706C2.31909 24.4121 2.00228 23.6552 2 22.8653V4.98082C2.00228 4.19095 2.31909 3.43409 2.88121 2.87557C3.44334 2.31705 4.20508 2.00227 5.00004 2Z" stroke="#EE1E79" stroke-width="4" stroke-linecap="round" stroke-linejoin="round"/>
<path d="M32 5.0769L17.0002 15.0769L2 5.0769" stroke="#EE1E79" stroke-width="4" stroke-linecap="round" stroke-linejoin="round"/>
</svg>
