<svg width="22" height="22" viewBox="0 0 22 22" fill="none" xmlns="http://www.w3.org/2000/svg">
<path d="M9.12257 12.5002L19.6226 2.00017M9.25015 12.8282L11.8783 19.5862C12.1098 20.1816 12.2255 20.4793 12.3923 20.5662C12.5369 20.6415 12.7092 20.6416 12.8539 20.5664C13.0208 20.4797 13.1369 20.1822 13.3691 19.5871L19.9595 2.69937C20.1691 2.16219 20.2739 1.8936 20.2166 1.72197C20.1668 1.57292 20.0498 1.45596 19.9008 1.40616C19.7291 1.34883 19.4606 1.45364 18.9234 1.66327L2.03562 8.25361C1.44055 8.48584 1.14301 8.60195 1.0563 8.76886C0.981136 8.91354 0.981238 9.08579 1.05658 9.23039C1.14348 9.39719 1.44115 9.51296 2.0365 9.74448L8.7945 12.3726C8.91535 12.4196 8.97578 12.4431 9.02666 12.4794C9.07175 12.5115 9.11119 12.551 9.14336 12.5961C9.17965 12.647 9.20315 12.7074 9.25015 12.8282Z" stroke="white" stroke-width="2" stroke-linecap="round" stroke-linejoin="round"/>
</svg>
