<svg width="22" height="20" viewBox="0 0 22 20" fill="none" xmlns="http://www.w3.org/2000/svg">
<path d="M18.434 18.5H3.49057C2.83003 18.5 2.19654 18.2015 1.72947 17.6701C1.2624 17.1388 1 16.4181 1 15.6667V12.8333C1.66054 12.8333 2.29402 12.5348 2.7611 12.0035C3.22817 11.4721 3.49057 10.7514 3.49057 10C3.49057 9.24855 3.22817 8.52788 2.7611 7.99653C2.29402 7.46518 1.66054 7.16667 1 7.16667V4.33333C1 3.58189 1.2624 2.86122 1.72947 2.32986C2.19654 1.79851 2.83003 1.5 3.49057 1.5H18.434C19.0945 1.5 19.728 1.79851 20.1951 2.32986C20.6621 2.86122 20.9245 3.58189 20.9245 4.33333V7.16667C20.264 7.16667 19.6305 7.46518 19.1634 7.99653C18.6964 8.52788 18.434 9.24855 18.434 10C18.434 10.7514 18.6964 11.4721 19.1634 12.0035C19.6305 12.5348 20.264 12.8333 20.9245 12.8333V15.6667C20.9245 16.4181 20.6621 17.1388 20.1951 17.6701C19.728 18.2015 19.0945 18.5 18.434 18.5Z" stroke="white" stroke-width="2" stroke-linecap="round" stroke-linejoin="round"/>
<path d="M8.24512 6.5V13.5833" stroke="white" stroke-width="2" stroke-linecap="round" stroke-linejoin="round"/>
</svg>
