<svg width="175" height="61" viewBox="0 0 175 61" fill="none" xmlns="http://www.w3.org/2000/svg">
<path fill-rule="evenodd" clip-rule="evenodd" d="M34.918 4.446V0H40.582V4.446H42.423V8.068H33.4V4.446H34.918ZM56.637 31.746C54.136 30.8712 51.412 30.8712 48.911 31.746C47.865 32.1354 46.9195 32.7542 46.144 33.557C45.3929 34.341 44.8258 35.2825 44.484 36.313C44.101 37.4397 43.9107 38.623 43.921 39.813C43.9155 41.0062 44.1057 42.1923 44.484 43.324C44.8326 44.3645 45.3984 45.3189 46.144 46.124C46.9181 46.9356 47.8633 47.5646 48.911 47.965C51.4103 48.8503 54.1377 48.8503 56.637 47.965C57.676 47.5733 58.6145 46.9545 59.3838 46.1538C60.1532 45.3532 60.734 44.3908 61.084 43.337C61.4574 42.2044 61.6442 41.0186 61.637 39.826C61.65 38.6366 61.463 37.4535 61.084 36.326C60.7297 35.2958 60.155 34.3553 59.4 33.57C58.6198 32.7724 57.6776 32.1514 56.637 31.749V31.746ZM55.359 41.836C55.2898 42.3664 55.1369 42.8825 54.906 43.365C54.7157 43.7537 54.4281 44.0865 54.071 44.331C53.6744 44.5585 53.2252 44.6781 52.768 44.6781C52.3108 44.6781 51.8616 44.5585 51.465 44.331C51.1038 44.0798 50.813 43.7404 50.62 43.345C50.3891 42.859 50.2362 42.3396 50.167 41.806C50.0733 41.1462 50.0295 40.4804 50.036 39.814C50.0346 39.198 50.0783 38.5826 50.167 37.973C50.2363 37.449 50.3893 36.9395 50.62 36.464C50.8153 36.062 51.1053 35.7133 51.465 35.448C51.8495 35.1863 52.3083 35.0558 52.773 35.076C53.2215 35.0543 53.6663 35.1664 54.051 35.398C54.4106 35.6396 54.699 35.9732 54.886 36.364C55.1155 36.8369 55.2684 37.3432 55.339 37.864C55.4279 38.5055 55.4717 39.1524 55.47 39.8C55.4748 40.4793 55.4344 41.1581 55.349 41.832L55.359 41.836ZM42.412 35.1V31.477H33.389V35.1H34.908V35.734L29.556 39.607V35.107H31.095V31.487H21.961V35.109H23.822V44.709H21.961V48.331H31.095V44.706H29.556V43.931L34.918 40.048V44.716H33.4V48.338H42.424V44.716H40.581V35.116H42.422L42.412 35.1ZM19.888 35.1V31.477H0V35.1H1.851V44.7H0V48.322H9.1V44.7H7.6V35.1H12.308V44.7H10.808V48.322H19.872V44.7H18.072V35.1H19.883H19.888ZM18.369 11.971L18.047 15.11L18.037 15.12L15.985 15.231L13.299 19.231L16.629 24.442L18.913 24.653V27.782C18.6305 27.9048 18.3377 28.0025 18.038 28.074C17.726 28.154 17.414 28.235 17.113 28.285C16.864 28.327 16.629 28.361 16.401 28.395L16.259 28.416C16.0457 28.4473 15.8306 28.464 15.615 28.466C15.1989 28.4778 14.7825 28.4644 14.368 28.426C14.0288 28.3971 13.6962 28.3158 13.382 28.185C13.0901 28.061 12.8239 27.8836 12.597 27.662C12.3331 27.4087 12.1002 27.1251 11.903 26.817L8.189 20.673V18.8L11.689 12.855C11.9998 12.2611 12.4746 11.7689 13.057 11.437C13.619 11.1825 14.2313 11.0587 14.848 11.075C16.079 11.0672 17.2914 11.3757 18.369 11.971ZM0 14.949H1.821V24.576H0V28.2H9.245V24.576H7.555V14.949H9.245V11.378H0V14.949ZM12.323 4.449V0H18.087V4.446H19.887V8.068H10.824V4.446L12.323 4.449ZM113.515 42.463C114.405 42.4791 115.291 42.3358 116.131 42.04C116.847 41.7867 117.502 41.3857 118.053 40.863C118.562 40.3756 118.957 39.7813 119.209 39.123C119.485 38.4496 119.626 37.728 119.621 37C119.626 36.2733 119.517 35.5503 119.299 34.857C119.092 34.1953 118.725 33.5945 118.232 33.107C117.662 32.5701 116.978 32.1679 116.232 31.93C115.227 31.6155 114.177 31.4692 113.124 31.497H103.737V35.119H105.468V44.719H103.737V48.341H113.465V44.716H111.252V42.483H113.515V42.463ZM111.252 39.043V35.1H111.752C112.929 35.1 113.512 35.784 113.512 37.132C113.523 37.6023 113.401 38.0662 113.16 38.47C113.02 38.6678 112.829 38.825 112.609 38.9257C112.388 39.0263 112.144 39.0668 111.903 39.043H111.249H111.252ZM139.983 28.2H131.664L131.674 28.19L131.634 24.568H132.912L132.59 23.468H127.62L127.268 24.575H128.585V28.186H120.638V24.576H121.916L126.986 11.357H134.048L138.7 24.576H139.978L139.983 28.2ZM129.349 18.46L128.786 20.11L128.766 20.12H131.553L131.053 18.51L130.3 15.8H130.2L129.349 18.46ZM63.126 14.979V11.358H54.062V14.98H55.562V17.948H50.853V14.979H52.353V11.358H43.237V14.98H45.088V24.58H43.237V28.2H52.351V24.576H50.851V21.3H55.559V24.579H54.059V28.2H63.123V24.576H61.315V14.976L63.126 14.979ZM96.313 0V1.237L92.672 1.167V4.457H97.682V1.167H101.565V8.067H85.136V4.446H86.887V0H96.313ZM83.044 35.1V31.477H73.98V35.1H75.48V38.068H70.771V35.1H72.271V31.477H63.171V35.1H65.022V44.7H63.166V48.322H72.266V44.7H70.766V41.416H75.474V44.7H73.974V48.322H83.038V44.7H81.233V35.1H83.044ZM65.007 4.446V0H81.223V4.457H83.034V8.078H73.97V4.457H75.47V1.167H70.761V4.447H72.261V8.068H63.161V4.446H65.007ZM1.851 0V4.446H0V8.068H9.1V4.446H7.6V0H1.851ZM115.225 21.3H119.1L119.11 21.29V28.19H102.671V24.566H104.431V14.966H102.671V11.347H118.917V17.936H115.044V14.969H110.215V17.937L113.846 17.867V21.367L110.215 21.297V24.576H115.225V21.3ZM105.477 4.46H103.746V8.078H113.474V4.457H111.261V2.233H113.524C114.414 2.24906 115.3 2.1058 116.14 1.81C116.856 1.55665 117.511 1.15565 118.062 0.633C118.251 0.446974 118.426 0.246357 118.584 0.033H105.484V4.467L105.477 4.46ZM97.677 41.42H101.56V48.32H85.136V44.7H86.887V35.1H85.136V31.477H101.383V38.056H97.5V35.089H92.672V38.057L96.313 37.987V41.487L92.672 41.417V44.7H97.682L97.677 41.42ZM168.04 22.343C168.931 22.3614 169.818 22.2146 170.655 21.91C171.371 21.6567 172.026 21.2557 172.577 20.733C173.084 20.242 173.482 19.649 173.743 18.993C174.008 18.3169 174.141 17.5962 174.135 16.87C174.139 16.1368 174.03 15.4073 173.813 14.707C173.6 14.0434 173.227 13.4424 172.727 12.957C172.157 12.4203 171.473 12.0182 170.727 11.78C169.725 11.466 168.677 11.3197 167.627 11.347H158.271V14.969H160V24.569H158.27V28.181H168V24.566H165.8V22.333H168.054L168.04 22.343ZM165.786 18.9V14.969H166.286C167.463 14.969 168.037 15.653 168.037 17.001C168.048 17.4713 167.926 17.9352 167.685 18.339C167.544 18.5356 167.353 18.6912 167.132 18.7901C166.911 18.889 166.668 18.9276 166.427 18.902L165.786 18.9ZM13.876 60.349L13.882 60.359V60.349H13.876ZM13.876 60.349L13.319 59.474L16.005 55.474L18.047 55.353L18.369 52.224C17.2939 51.6214 16.0804 51.3095 14.848 51.319C14.2313 51.3027 13.619 51.4265 13.057 51.681C12.4756 52.0138 12.004 52.5091 11.7 53.106L8.2 59.031V60.349H13.876ZM7.555 55.2V60.351H1.831V55.2H0V51.627H9.235V55.2H7.555ZM39.324 55.24V60.36H22.564V55.24H20.713V51.617H29.847V55.217H28.308V59.724L33.66 55.861V55.237H32.141V51.617H41.165V55.239L39.324 55.24ZM61.315 55.24V60.36H45.078V55.24H43.237V51.617H52.351V55.239H50.851V58.207H55.559V55.239H54.059V51.617H63.123V55.239L61.315 55.24ZM82.35 60.16C82.35 60.228 82.34 60.294 82.34 60.36H76.193V59.938C76.1995 59.2919 76.1557 58.6463 76.062 58.007C75.9914 57.4862 75.8385 56.9799 75.609 56.507C75.416 56.1201 75.1289 55.788 74.774 55.541C74.3922 55.3044 73.949 55.1857 73.5 55.2C73.0353 55.1798 72.5765 55.3103 72.192 55.572C71.8312 55.843 71.5385 56.1943 71.337 56.598C71.1063 57.0735 70.9533 57.583 70.884 58.107C70.7953 58.7166 70.7516 59.332 70.753 59.948V60.36H64.624V59.948C64.6053 58.7582 64.7924 57.5741 65.177 56.448C65.5264 55.4187 66.0964 54.4781 66.847 53.692C67.628 52.894 68.5713 52.273 69.613 51.871C72.1157 51.0059 74.8363 51.0059 77.339 51.871C78.3835 52.2739 79.3301 52.8947 80.116 53.692C80.8742 54.4724 81.4452 55.4147 81.786 56.448C82.1762 57.5732 82.3701 58.7571 82.359 59.948C82.36 60.018 82.355 60.09 82.35 60.16ZM95.35 55.238V60.358H89.673V55.238H87.813V58.226H83.969V51.617H101.069V58.226H97.229V55.239L95.35 55.238ZM113.85 60.348V60.358L113.86 60.348H113.85ZM113.85 60.348V58.126L110.219 58.196V55.229H115.048V58.2H118.921V51.607H102.671V55.229H104.431V60.349L113.85 60.348ZM134.03 51.606L137.099 60.358H131.543L131.043 58.758L130.288 56.058H130.197L129.342 58.714L128.779 60.354H123.618L126.968 51.602L134.03 51.606ZM128.779 60.358H131.543V60.368H128.766L128.779 60.358ZM150.971 55.238V60.358H145.287V55.238H143.426V58.226H139.58V51.617H156.692V58.226H152.85V55.239L150.971 55.238ZM173.746 59.252C173.585 59.6452 173.375 60.017 173.123 60.359H159.992V55.239H158.262V51.617H167.648C168.698 51.5897 169.746 51.736 170.748 52.05C171.496 52.2842 172.18 52.6869 172.748 53.227C173.239 53.7159 173.605 54.3163 173.814 54.977C174.031 55.6705 174.14 56.3933 174.136 57.12C174.141 57.8491 174.008 58.5726 173.743 59.252H173.746ZM166.413 59.172C166.654 59.1979 166.897 59.1594 167.118 59.0605C167.339 58.9616 167.53 58.8058 167.671 58.609V58.589C167.92 58.188 168.046 57.7228 168.033 57.251C168.033 55.903 167.449 55.229 166.272 55.229H165.772V59.172H166.413ZM55.349 1.589C55.2811 2.11952 55.1296 2.63593 54.9 3.119C54.713 3.50981 54.4246 3.84337 54.065 4.085C53.6798 4.31547 53.2354 4.42746 52.787 4.407C52.324 4.43387 51.864 4.31798 51.469 4.075C51.1056 3.82625 50.8142 3.48618 50.624 3.089C50.3931 2.60647 50.2402 2.0904 50.171 1.56C50.1007 1.04645 50.0603 0.529241 50.05 0.011H43.941C43.9695 1.05487 44.1525 2.08876 44.484 3.079C44.8326 4.11945 45.3984 5.07389 46.144 5.879C46.9159 6.69091 47.862 7.31697 48.911 7.71C50.1458 8.16905 51.457 8.38765 52.774 8.354C54.091 8.38765 55.4022 8.16905 56.637 7.71C57.6811 7.30782 58.6243 6.68142 59.4 5.875C60.155 5.07345 60.728 4.11836 61.08 3.075C61.4115 2.08475 61.5944 1.05086 61.623 0.00699997H55.47C55.4653 0.540105 55.4248 1.0723 55.349 1.6V1.589ZM89.663 14.979H87.813V17.967H83.979V11.358H101.091V17.967H97.259V14.979H95.377V24.579H97.309V28.2H87.692V24.576H89.663V14.979ZM29.857 24.579H28.308V23.8L33.67 19.907V24.575H32.151V28.2H41.175V24.576H39.334V14.976H41.175V11.358H32.151V14.98H33.67V15.614L28.318 19.477V14.977H29.857V11.358H20.723V14.98H22.574V24.58H20.723V28.2H29.857V24.579ZM156.672 11.358V17.967H152.86V14.979H150.978V24.579H152.9V28.2H143.293V24.576H145.264V14.976H143.4V17.964H139.58V11.358H156.672ZM34.606 0H23.832V4.446H21.971V8.068H31.105V4.446H29.566V3.662L34.606 0ZM77.36 27.836C74.8607 28.7213 72.1333 28.7213 69.634 27.836C68.5867 27.4354 67.6418 26.8065 66.868 25.995C66.116 25.193 65.5463 24.2378 65.198 23.195C64.4536 20.9169 64.4536 18.4611 65.198 16.183C65.5475 15.1537 66.1174 14.2132 66.868 13.427C67.6494 12.6319 68.5928 12.0143 69.634 11.616C72.1367 10.7509 74.8573 10.7509 77.36 11.616C78.4039 12.0153 79.3507 12.6327 80.137 13.427C80.8897 14.2116 81.46 15.1526 81.807 16.183C82.5616 18.4594 82.5616 20.9186 81.807 23.195C81.465 24.2407 80.8946 25.1972 80.137 25.995C79.3574 26.8048 78.4094 27.4333 77.36 27.836ZM71.344 16.347C71.1146 16.8231 70.9617 17.3323 70.891 17.856V17.836C70.8074 18.4324 70.7636 19.0338 70.76 19.636C70.7535 20.3023 70.7973 20.9682 70.891 21.628C70.9602 22.1616 71.1131 22.681 71.344 23.167C71.537 23.5624 71.8279 23.9018 72.189 24.153C72.5869 24.3899 73.0441 24.5085 73.507 24.495C73.9554 24.5155 74.3998 24.4035 74.785 24.173C75.1421 23.9285 75.4297 23.5957 75.62 23.207C75.8509 22.7245 76.0038 22.2084 76.073 21.678C76.162 21.0111 76.2058 20.3389 76.204 19.666C76.2054 19.0201 76.1617 18.3748 76.073 17.735C76.0037 17.211 75.8508 16.7015 75.62 16.226C75.427 15.8391 75.1399 15.5069 74.785 15.26C74.3854 15.038 73.9339 14.9265 73.4769 14.937C73.0198 14.9476 72.5739 15.0798 72.185 15.32C71.8285 15.5921 71.5405 15.9438 71.344 16.347Z" fill="white"/>
</svg>
