<svg width="209" height="49" viewBox="0 0 209 49" fill="none" xmlns="http://www.w3.org/2000/svg">
<path fill-rule="evenodd" clip-rule="evenodd" d="M67.9748 26.8297C64.9734 25.7841 61.7042 25.7841 58.7028 26.8297C57.4475 27.2952 56.313 28.0347 55.3824 28.9939C54.4798 29.9308 53.7983 31.0562 53.3873 32.2882C52.9274 33.6345 52.6988 35.0482 52.7111 36.4701C52.7047 37.8961 52.9331 39.3133 53.3873 40.6656C53.8066 41.9091 54.4867 43.0495 55.3824 44.0112C56.3118 44.9795 57.446 45.7295 58.7028 46.2067C61.7022 47.2644 64.9754 47.2644 67.9748 46.2067C69.2216 45.7387 70.3477 44.9993 71.271 44.0426C72.1942 43.086 72.8913 41.9362 73.3113 40.6772C73.7596 39.3238 73.9837 37.9067 73.9749 36.4817C73.9904 35.0605 73.7661 33.6469 73.3113 32.2997C72.8877 31.0688 72.1997 29.9446 71.2951 29.0054C70.3576 28.0518 69.2253 27.3098 67.9748 26.8297ZM66.4417 38.8873C66.3589 39.5212 66.1757 40.1381 65.8989 40.7148C65.67 41.1776 65.3249 41.5737 64.8971 41.8649C64.4212 42.1366 63.8821 42.2795 63.3335 42.2795C62.7849 42.2795 62.2459 42.1366 61.77 41.8649C61.3365 41.5646 60.9873 41.1591 60.7556 40.6866C60.4788 40.1058 60.2956 39.4851 60.2127 38.8476C60.1005 38.0591 60.0482 37.2633 60.0563 36.467C60.0545 35.7324 60.1068 34.9985 60.2127 34.2715C60.2957 33.6453 60.4789 33.0364 60.7556 32.468C60.9901 31.9877 61.3382 31.5711 61.77 31.2542C62.2315 30.9416 62.7821 30.7858 63.3398 30.8099C63.8779 30.7841 64.4115 30.918 64.8729 31.1946C65.3038 31.4823 65.6497 31.8793 65.8747 32.3447C66.1497 32.9093 66.3329 33.5137 66.4176 34.1356C66.5238 34.9005 66.5761 35.6719 66.5741 36.444C66.58 37.2559 66.5316 38.0672 66.4291 38.8727L66.4417 38.8873ZM50.9009 30.8371V26.5046H40.0726V30.8319H41.8976V31.5888L35.4744 36.2172V30.8434H37.3214V26.5171H26.3566V30.8444H28.5901V42.3154H26.3566V46.6427H37.3193V42.3154H35.4723V41.3902L41.9081 36.7504V42.3279H40.0852V46.6553H50.9144V42.3248H48.7094V30.8569H50.9144L50.9009 30.8371ZM23.868 30.8371V26.5046H0V30.8319H2.22194V42.3008H0V46.628H10.927V42.3008H9.12821V30.8329H14.7786V42.3008H12.9788V46.628H23.8575V42.3008H21.6965V30.8329H23.8701L23.868 30.8371ZM22.0514 3.19657L21.6649 6.94675L21.6523 6.95927L19.1889 7.09102L15.961 11.8752L19.9575 18.1021L22.6982 18.3551V22.0937C22.3591 22.2402 22.0077 22.3567 21.6481 22.4419C21.2743 22.538 20.8995 22.6342 20.5372 22.6938C20.2379 22.7429 19.9554 22.7848 19.6835 22.8245L19.5134 22.8496C19.2574 22.8869 18.9992 22.9068 18.7405 22.9092C18.2409 22.9233 17.7408 22.9071 17.2431 22.8611C16.836 22.8265 16.4368 22.7291 16.0597 22.5725C15.7082 22.4239 15.3876 22.2112 15.1146 21.9452C14.798 21.6425 14.5185 21.3034 14.2819 20.9354L9.82755 13.595V11.3587L14.0278 4.24943C14.4011 3.53971 14.9711 2.95152 15.6701 2.55468C16.3445 2.25052 17.0795 2.10254 17.8196 2.12188C19.2994 2.11276 20.7567 2.48285 22.0514 3.19657ZM0 6.75128H2.18519V18.2516H0V22.5788H11.096V18.2589H9.06731V6.7586H11.096V2.48255H0V6.75128ZM136.24 39.6317C137.308 39.6511 138.371 39.48 139.379 39.1267C140.24 38.8243 141.027 38.3453 141.69 37.7206C142.301 37.1382 142.775 36.428 143.078 35.6411C143.409 34.8365 143.578 33.9744 143.572 33.1048C143.578 32.2365 143.447 31.3727 143.186 30.5443C142.937 29.7538 142.498 29.0358 141.906 28.4533C141.221 27.8116 140.4 27.3311 139.503 27.0472C138.297 26.671 137.037 26.4958 135.773 26.5287H124.504V30.8569H126.581V42.3248H124.504V46.6521H136.18V42.3248H133.524V39.6558H136.241L136.24 39.6317ZM133.523 35.5449V30.8329H134.127C135.54 30.8329 136.24 31.6505 136.24 33.2616C136.254 33.8232 136.108 34.3774 135.82 34.8602C135.651 35.0966 135.423 35.2844 135.158 35.4047C134.893 35.525 134.601 35.5733 134.311 35.5449H133.526H133.523ZM168.01 22.5861H158.025L158.038 22.5746L157.99 18.2474H159.524L159.137 16.9374H153.173L152.753 18.2599H154.334V22.5757H144.797V18.2589H146.33L152.42 2.46271H160.895L166.486 18.2589H168.01V22.5861ZM155.244 10.951L154.568 12.9228L154.543 12.9343H157.888L157.284 11.0105L156.378 7.77689H156.273L155.244 10.951ZM75.7632 6.79096V2.46271H64.8845V6.78996H66.6791V10.3363H61.0329V6.79096H62.8316V2.46271H51.8931V6.78996H54.115V18.2589H51.8931V22.5861H62.8316V18.2589H61.0329V14.3394H66.6791V18.2589H64.8845V22.5861H75.7632V18.2589H73.5895V6.79096H75.7632ZM99.669 30.8329V26.5046H88.7903V30.8319H90.589V34.3782H84.9386V30.8329H86.7353V26.5046H75.8146V30.8319H78.0366V42.3008H75.8146V46.628H86.7353V42.3008H84.9386V38.3823H90.589V42.3008H88.7903V46.628H99.669V42.3008H97.4953V30.8329H99.669ZM138.294 14.3394H142.942L142.954 14.3269V22.5736H123.225V18.2464H125.338V6.77844H123.225V2.45119H142.724V10.3236H138.075V6.77844H132.28V10.3236L136.639 10.239V14.4209L132.28 14.3373V18.2589H138.294V14.3394ZM117.236 38.3823H121.896V46.6291H102.18V42.3008H104.28V30.8329H102.18V26.5046H121.679V34.3697H117.019V30.8203H111.224V34.3697L115.594 34.2851V38.4671L111.224 38.3823V42.3008H117.237L117.236 38.3823ZM201.68 15.5908C202.749 15.6128 203.813 15.4373 204.818 15.0733C205.679 14.771 206.466 14.2919 207.129 13.6671C207.738 13.0805 208.215 12.3716 208.528 11.5877C208.847 10.7801 209.007 9.91898 209 9.05136C209.004 8.17523 208.874 7.30361 208.613 6.46686C208.358 5.67398 207.91 4.95595 207.31 4.37597C206.625 3.73448 205.804 3.25398 204.908 2.96975C203.705 2.59496 202.449 2.42053 201.189 2.45329H189.957V6.78054H192.033V18.2464H189.957V22.5621H201.633V18.2464H198.987V15.5783H201.692L201.68 15.5908ZM198.975 11.4737V6.76902H199.579C200.992 6.76902 201.679 7.58664 201.679 9.19773C201.693 9.75928 201.547 10.3135 201.259 10.7962C201.089 11.031 200.86 11.2171 200.595 11.3353C200.33 11.4535 200.039 11.4998 199.75 11.4696L198.975 11.4737ZM107.613 6.78685H105.392V10.3571H100.792V2.46271H121.33V10.3603H116.729V6.79096H114.472V18.2589H116.79V22.5861H105.247V18.2589H107.613V6.78685ZM35.8345 18.2589H33.9759V17.3285L40.4107 12.676V18.2589H38.5878V22.5861H49.4182V18.2589H47.213V6.79096H49.4182V2.46271H38.5878V6.78996H40.4107V7.54686L33.9875 12.1637V6.78996H35.8345V2.46271H24.8718V6.78996H27.0917V18.2589H24.8718V22.5861H35.8345V18.2589ZM188.036 2.46271V10.3603H183.46V6.79096H181.201V18.2589H183.512V22.5861H171.979V18.2589H174.344V6.79096H172.111V10.3613H167.522V2.46271H188.036ZM92.8467 22.1533C89.8473 23.211 86.574 23.211 83.5746 22.1533C82.3178 21.676 81.1836 20.926 80.2543 19.9578C79.3517 18.9996 78.6679 17.8582 78.2497 16.6122C77.3563 13.8903 77.3563 10.9558 78.2497 8.23374C78.6691 7.00345 79.3532 5.87916 80.2543 4.93941C81.1923 3.98925 82.3247 3.25118 83.5746 2.77529C86.5781 1.74157 89.8432 1.74157 92.8467 2.77529C94.0996 3.25248 95.2359 3.99025 96.1796 4.93941C97.082 5.87726 97.7654 7.00175 98.181 8.23274C99.0865 10.9528 99.0865 13.8912 98.181 16.6112C97.7705 17.8607 97.0858 19.0036 96.1764 19.9567C95.2414 20.9228 94.1047 21.6726 92.8467 22.1533ZM85.6264 8.4251C85.3514 8.99405 85.1682 9.60269 85.0835 10.2286V10.2045C84.9834 10.9174 84.9311 11.6363 84.9271 12.3561C84.919 13.1524 84.9713 13.9482 85.0835 14.7366C85.1664 15.3742 85.3496 15.9949 85.6264 16.5757C85.8581 17.0481 86.2073 17.4537 86.6408 17.7539C87.1183 18.0379 87.6673 18.1804 88.2232 18.1648C88.7611 18.1891 89.2943 18.0553 89.7563 17.7801C90.1842 17.4891 90.5293 17.0929 90.7581 16.6301C91.0349 16.0533 91.2182 15.4364 91.301 14.8026C91.4076 14.0054 91.4599 13.2021 91.4574 12.3979C91.4595 11.6257 91.4072 10.8544 91.301 10.0895C91.2181 9.46333 91.0348 8.85439 90.7581 8.28604C90.526 7.82528 90.1816 7.42995 89.7563 7.136C89.2775 6.87181 88.7366 6.73926 88.1893 6.75189C87.6419 6.76461 87.1079 6.922 86.6418 7.20813C86.213 7.52973 85.8653 7.94641 85.6264 8.4251Z" fill="white"/>
</svg>
