<svg width="32" height="32" viewBox="0 0 32 32" fill="none" xmlns="http://www.w3.org/2000/svg">
<g opacity="0.5">
<path d="M16 32C24.8366 32 32 24.8366 32 16C32 7.16344 24.8366 0 16 0C7.16344 0 0 7.16344 0 16C0 24.8366 7.16344 32 16 32Z" fill="white"/>
<path fill-rule="evenodd" clip-rule="evenodd" d="M7.48321 16.0404C12.1347 14.0137 15.2362 12.6778 16.7875 12.0327C21.2189 10.1895 22.1392 9.86947 22.7395 9.85667C22.96 9.85206 23.1763 9.91703 23.3578 10.0423C23.4849 10.153 23.5657 10.3074 23.5843 10.4749C23.6167 10.6827 23.6258 10.8936 23.6112 11.1034C23.3706 13.6263 22.3312 19.7485 21.8039 22.5748C21.5799 23.7703 21.1395 24.1709 20.7133 24.2106C19.7866 24.2964 19.0826 23.5988 18.1853 23.01C16.7773 22.0896 15.9875 21.5162 14.6243 20.6177C13.0486 19.5796 14.0701 19.0087 14.9674 18.0769C15.2029 17.8324 19.2848 14.1191 19.3642 13.7825C19.3744 13.733 19.3731 13.6818 19.3602 13.6329C19.3473 13.5841 19.3233 13.5388 19.2899 13.5009C19.2413 13.47 19.186 13.451 19.1286 13.4455C19.0713 13.4399 19.0134 13.4479 18.9597 13.4689C18.8189 13.5004 16.5755 14.9831 12.2295 17.9169C11.7332 18.305 11.1283 18.5287 10.4989 18.5569C9.65264 18.4545 8.82055 18.2574 8.01825 17.9693C7.01857 17.6442 6.22625 17.4727 6.29409 16.921C6.33079 16.6343 6.72716 16.3408 7.48321 16.0404Z" fill="black"/>
</g>
</svg>
