<svg width="32" height="32" viewBox="0 0 32 32" fill="none" xmlns="http://www.w3.org/2000/svg">
<g opacity="0.5">
<path d="M0 15.4923C0 8.30895 0 4.71727 2.23104 2.48495C4.46208 0.252626 8.05504 0.253906 15.2384 0.253906H16.512C23.6954 0.253906 27.287 0.253906 29.5194 2.48495C31.7517 4.71599 31.744 8.30895 31.744 15.4923V16.7659C31.744 23.9493 31.744 27.5409 29.513 29.7733C27.2819 32.0056 23.6915 31.9979 16.512 31.9979H15.2422C8.05888 31.9979 4.4672 31.9979 2.23488 29.7669C0.00256012 27.5358 0 23.9454 0 16.7659V15.4923Z" fill="white"/>
<path d="M16.8915 23.1249C9.65566 23.1249 5.52894 18.1649 5.35742 9.91016H8.98238C9.10142 15.9684 11.7728 18.5348 13.8899 19.0634V9.91016H17.3024V15.1351C19.3926 14.9098 21.5878 12.529 22.3289 9.91016H25.7414C25.4625 11.2684 24.9063 12.5546 24.1077 13.6882C23.3091 14.8218 22.2853 15.7784 21.1001 16.4983C22.4235 17.1554 23.5923 18.0858 24.5294 19.2281C25.4665 20.3704 26.1506 21.6986 26.5363 23.1249H22.7769C22.431 21.8858 21.7267 20.7766 20.7525 19.9365C19.7783 19.0964 18.5775 18.5629 17.3011 18.403V23.1249H16.8915Z" fill="black"/>
</g>
</svg>
